<svg width="294" height="294" viewBox="0 0 294 294" fill="none" xmlns="http://www.w3.org/2000/svg">
<path d="M269.681 34.4716C257.415 22.5003 239.546 16.1655 219.241 16.6662C188.188 17.4196 157.304 48.4274 147 59.8015C136.696 48.4274 105.812 17.4196 74.7587 16.6662C54.4405 16.1747 36.5846 22.5003 24.3193 34.4716C11.2271 47.2422 4.59375 65.6999 4.59375 89.321C4.59375 140.394 51.1284 209.673 109.901 223.008L95.5133 271.459C95.2343 272.4 95.2646 273.407 95.5997 274.33C95.9348 275.254 96.5571 276.045 97.3753 276.589C98.1934 277.133 99.1643 277.4 100.145 277.351C101.126 277.303 102.066 276.941 102.826 276.319L164.305 225.921C236.959 218.993 289.406 139.875 289.406 89.321C289.406 65.6999 282.768 47.2422 269.681 34.4716ZM194.66 164.24H99.3398C98.1215 164.24 96.9531 163.756 96.0916 162.895C95.2301 162.033 94.7461 160.865 94.7461 159.647C94.7461 158.428 95.2301 157.26 96.0916 156.398C96.9531 155.537 98.1215 155.053 99.3398 155.053H194.66C195.878 155.053 197.047 155.537 197.908 156.398C198.77 157.26 199.254 158.428 199.254 159.647C199.254 160.865 198.77 162.033 197.908 162.895C197.047 163.756 195.878 164.24 194.66 164.24ZM229.113 135.53H64.8867C63.6684 135.53 62.4999 135.046 61.6384 134.184C60.777 133.323 60.293 132.154 60.293 130.936C60.293 129.717 60.777 128.549 61.6384 127.687C62.4999 126.826 63.6684 126.342 64.8867 126.342H229.113C230.332 126.342 231.5 126.826 232.362 127.687C233.223 128.549 233.707 129.717 233.707 130.936C233.707 132.154 233.223 133.323 232.362 134.184C231.5 135.046 230.332 135.53 229.113 135.53ZM229.113 106.819H64.8867C63.6684 106.819 62.4999 106.335 61.6384 105.473C60.777 104.612 60.293 103.443 60.293 102.225C60.293 101.006 60.777 99.8381 61.6384 98.9766C62.4999 98.1151 63.6684 97.6311 64.8867 97.6311H229.113C230.332 97.6311 231.5 98.1151 232.362 98.9766C233.223 99.8381 233.707 101.006 233.707 102.225C233.707 103.443 233.223 104.612 232.362 105.473C231.5 106.335 230.332 106.819 229.113 106.819Z" fill="white"/>
</svg>
