<svg width="48" height="38" viewBox="0 0 48 38" fill="none" xmlns="http://www.w3.org/2000/svg">
<path d="M13.0582 21.3683C8.48311 21.3683 4.74845 25.103 4.74845 29.6781C4.74845 34.2532 8.48311 37.9879 13.0582 37.9879C15.0548 37.9828 16.9831 37.261 18.4922 35.9537C20.0012 34.6464 20.9906 32.8407 21.2802 30.8652H26.2043C26.4939 32.8407 27.4833 34.6464 28.9924 35.9537C30.5014 37.261 32.4298 37.9828 34.4263 37.9879C39.0014 37.9879 42.7361 34.2532 42.7361 29.6781C42.7361 25.103 39.0014 21.3683 34.4263 21.3683C32.4298 21.3734 30.5014 22.0953 28.9924 23.4025C27.4833 24.7098 26.4939 26.5156 26.2043 28.491H21.2802C20.9906 26.5156 20.0012 24.7098 18.4922 23.4025C16.9831 22.0953 15.0548 21.3734 13.0582 21.3683ZM13.6376 0.000269347C12.4464 -0.0116469 11.2849 0.372131 10.3353 1.09142C9.38569 1.8107 8.70168 2.82482 8.39052 3.97473L5.02386 16.6199H1.18711C0.872271 16.6199 0.570325 16.7449 0.347698 16.9676C0.125071 17.1902 0 17.4921 0 17.807C0 18.1218 0.125071 18.4238 0.347698 18.6464C0.570325 18.869 0.872271 18.9941 1.18711 18.9941H46.2974C46.6123 18.9941 46.9142 18.869 47.1368 18.6464C47.3595 18.4238 47.4845 18.1218 47.4845 17.807C47.4845 17.4921 47.3595 17.1902 47.1368 16.9676C46.9142 16.7449 46.6123 16.6199 46.2974 16.6199H42.4583L39.0964 3.97473C38.9054 3.26683 38.5714 2.60555 38.1151 2.03163C37.6588 1.4577 37.0898 0.983291 36.4432 0.637627C35.7966 0.291962 35.086 0.0823645 34.3553 0.0217491C33.6246 -0.0388664 32.8893 0.050784 32.1945 0.285176L24.1245 3.03928C23.8752 3.1243 23.6046 3.1243 23.3553 3.03928L15.2853 0.285176C14.7546 0.103448 14.1984 0.00727831 13.6376 0.000269347Z" fill="#85582B"/>
</svg>
