<svg width="193" height="60" viewBox="0 0 193 60" fill="none" xmlns="http://www.w3.org/2000/svg">
<path d="M0.88506 42L5.47426 19.1196H9.60454L5.76928 38.3286H14.456L13.7348 42H0.88506ZM23.4172 42.3934C21.1008 42.3934 19.3525 41.7487 18.1724 40.4593C17.0142 39.17 16.4351 37.378 16.4351 35.0834C16.4351 33.7067 16.6536 32.3845 17.0907 31.117C17.5277 29.8277 18.1396 28.6913 18.9264 27.7079C19.7349 26.7245 20.6965 25.9487 21.811 25.3805C22.9474 24.7905 24.2149 24.4955 25.6135 24.4955C26.2909 24.4955 26.9793 24.5829 27.6786 24.7577C28.3779 24.9107 29.0117 25.1729 29.5799 25.5444C30.148 25.8941 30.6179 26.3749 30.9894 26.9868C31.3609 27.5987 31.5467 28.3417 31.5467 29.2158C31.5467 31.0078 30.6616 32.4064 28.8915 33.4116C27.1432 34.4169 24.3351 34.9632 20.467 35.0506C20.4015 35.4877 20.3687 35.8046 20.3687 36.0013C20.3687 36.941 20.6309 37.6949 21.1554 38.2631C21.6799 38.8313 22.5322 39.1154 23.7122 39.1154C24.5645 39.1154 25.3403 38.9296 26.0396 38.5581C26.7389 38.1866 27.4601 37.5419 28.2031 36.6241L30.6616 38.6564C29.5908 40.0332 28.4653 41.0057 27.2853 41.5739C26.127 42.1202 24.8377 42.3934 23.4172 42.3934ZM25.3512 27.5768C24.2586 27.5768 23.3298 27.9374 22.5649 28.6585C21.8001 29.3797 21.2974 30.3631 21.0571 31.6087L20.8932 32.4282C22.2918 32.3627 23.4281 32.2534 24.3023 32.1004C25.1983 31.9256 25.8866 31.718 26.3674 31.4776C26.87 31.2372 27.2088 30.9531 27.3836 30.6253C27.5584 30.2975 27.6458 29.926 27.6458 29.5108C27.6458 29.1175 27.5693 28.8006 27.4164 28.5602C27.2853 28.298 27.1104 28.1013 26.8919 27.9702C26.6734 27.8172 26.422 27.7188 26.138 27.6751C25.8757 27.6096 25.6135 27.5768 25.3512 27.5768ZM36.9454 42C34.5852 42 33.4051 41.0275 33.4051 39.0826C33.4051 38.9078 33.4161 38.7111 33.4379 38.4925C33.4598 38.2522 33.4925 38.0118 33.5362 37.7714L35.4703 28.1341H33.0118L33.6346 24.8888H34.8474C35.5249 24.8888 35.9729 24.7577 36.1914 24.4955C36.4318 24.2114 36.6066 23.7743 36.7159 23.1843L37.3059 20.2013H41.0101L40.0922 24.8888H43.5341L42.8785 28.1341H39.4366L37.3059 38.7548H40.5512L39.8956 42H36.9454ZM48.8699 42.3934C47.4931 42.3934 46.2038 42.142 45.0018 41.6394C43.8217 41.1149 42.8711 40.3501 42.15 39.3448L44.674 37.0174C45.1766 37.6949 45.7667 38.2194 46.4441 38.5909C47.1434 38.9624 47.9848 39.1481 48.9682 39.1481C50.039 39.1481 50.8367 38.9296 51.3611 38.4925C51.9075 38.0555 52.1806 37.5201 52.1806 36.8863C52.1806 36.4711 52.0495 36.1105 51.7873 35.8046C51.525 35.4986 51.0333 35.291 50.3122 35.1818L48.706 34.9523C47.2855 34.7338 46.171 34.2639 45.3624 33.5428C44.5538 32.8216 44.1495 31.7726 44.1495 30.3959C44.1495 29.6092 44.2807 28.8661 44.5429 28.1668C44.827 27.4457 45.2531 26.8229 45.8213 26.2984C46.3895 25.752 47.0997 25.315 47.952 24.9872C48.8262 24.6594 49.8423 24.4955 51.0006 24.4955C53.6667 24.4955 55.7209 25.3805 57.1632 27.1507L54.6064 29.478C54.1911 28.9536 53.6557 28.5383 53.0001 28.2324C52.3664 27.9046 51.6343 27.7407 50.8039 27.7407C49.886 27.7407 49.1867 27.9374 48.706 28.3307C48.247 28.7022 48.0176 29.2049 48.0176 29.8386C48.0176 30.2538 48.1487 30.6144 48.4109 30.9204C48.6732 31.2263 49.154 31.4339 49.8533 31.5432L51.4595 31.7726C52.9018 31.9912 54.0272 32.461 54.8358 33.1822C55.6444 33.9033 56.0487 34.9523 56.0487 36.3291C56.0487 37.1595 55.8848 37.9462 55.557 38.6892C55.251 39.4322 54.7921 40.0769 54.1802 40.6232C53.5683 41.1696 52.8144 41.6066 51.9184 41.9344C51.0224 42.2404 50.0062 42.3934 48.8699 42.3934Z" fill="white"/>
<path d="M121.037 7.03488C118.534 4.59176 114.887 3.29895 110.743 3.40113C104.406 3.55488 98.1028 9.88301 96 12.2043C93.8972 9.88301 87.5944 3.55488 81.2569 3.40113C77.1103 3.30082 73.4663 4.59176 70.9631 7.03488C68.2913 9.64113 66.9375 13.408 66.9375 18.2286C66.9375 28.6518 76.4344 42.7902 88.4287 45.5118L85.4925 55.3996C85.4356 55.5918 85.4418 55.7972 85.5101 55.9856C85.5785 56.1741 85.7055 56.3357 85.8725 56.4466C86.0395 56.5576 86.2376 56.6121 86.4378 56.6022C86.6381 56.5922 86.8298 56.5184 86.985 56.3914L99.5316 46.1061C114.359 44.6924 125.062 28.5458 125.062 18.2286C125.062 13.408 123.708 9.64113 121.037 7.03488ZM105.727 33.5183H86.2734C86.0248 33.5183 85.7863 33.4195 85.6105 33.2437C85.4347 33.0679 85.3359 32.8295 85.3359 32.5808C85.3359 32.3322 85.4347 32.0937 85.6105 31.9179C85.7863 31.7421 86.0248 31.6433 86.2734 31.6433H105.727C105.975 31.6433 106.214 31.7421 106.389 31.9179C106.565 32.0937 106.664 32.3322 106.664 32.5808C106.664 32.8295 106.565 33.0679 106.389 33.2437C106.214 33.4195 105.975 33.5183 105.727 33.5183ZM112.758 27.6589H79.2422C78.9935 27.6589 78.7551 27.5602 78.5793 27.3844C78.4035 27.2085 78.3047 26.9701 78.3047 26.7214C78.3047 26.4728 78.4035 26.2343 78.5793 26.0585C78.7551 25.8827 78.9935 25.7839 79.2422 25.7839H112.758C113.006 25.7839 113.245 25.8827 113.421 26.0585C113.597 26.2343 113.695 26.4728 113.695 26.7214C113.695 26.9701 113.597 27.2085 113.421 27.3844C113.245 27.5602 113.006 27.6589 112.758 27.6589ZM112.758 21.7996H79.2422C78.9935 21.7996 78.7551 21.7008 78.5793 21.525C78.4035 21.3492 78.3047 21.1107 78.3047 20.8621C78.3047 20.6134 78.4035 20.375 78.5793 20.1992C78.7551 20.0233 78.9935 19.9246 79.2422 19.9246H112.758C113.006 19.9246 113.245 20.0233 113.421 20.1992C113.597 20.375 113.695 20.6134 113.695 20.8621C113.695 21.1107 113.597 21.3492 113.421 21.525C113.245 21.7008 113.006 21.7996 112.758 21.7996Z" fill="#FF9700"/>
<path d="M134.885 42L139.474 19.1196H153.439L152.685 22.7909H142.883L141.703 28.6585H150.456L149.702 32.3299H140.949L139.015 42H134.885ZM155.463 42C154.611 42 153.933 41.7815 153.431 41.3444C152.95 40.8855 152.709 40.2845 152.709 39.5415C152.709 39.4104 152.709 39.3011 152.709 39.2137C152.731 39.1044 152.764 38.9515 152.808 38.7548L157.004 17.7428H160.97L156.774 38.7548H158.97L158.348 42H155.463ZM166.522 22.3976C165.801 22.3976 165.276 22.2555 164.948 21.9714C164.621 21.6873 164.457 21.3158 164.457 20.8569C164.457 20.5291 164.511 20.1139 164.621 19.6113C164.752 19.0649 165.003 18.5951 165.375 18.2017C165.768 17.7865 166.434 17.5789 167.374 17.5789C168.095 17.5789 168.62 17.7209 168.948 18.005C169.275 18.2891 169.439 18.6606 169.439 19.1196C169.439 19.4474 169.385 19.8626 169.275 20.3652C169.144 20.9115 168.882 21.3923 168.489 21.8075C168.117 22.2009 167.462 22.3976 166.522 22.3976ZM163.834 42C163.003 42 162.337 41.7815 161.834 41.3444C161.354 40.8855 161.113 40.2845 161.113 39.5415C161.113 39.323 161.146 39.0498 161.211 38.722L163.965 24.8888H167.931L165.178 38.7548H167.243L166.587 42H163.834ZM168.959 42L172.401 24.8888H176.367L175.58 28.8224H175.777C175.974 28.3635 176.225 27.9046 176.531 27.4457C176.837 26.9868 177.198 26.5715 177.613 26.2C178.05 25.8067 178.531 25.4898 179.055 25.2494C179.601 25.009 180.213 24.8888 180.891 24.8888H181.776L180.956 28.7897H179.809C178.323 28.7897 177.176 29.1065 176.367 29.7403C175.58 30.3522 175.056 31.3246 174.794 32.6577L172.925 42H168.959ZM186.152 42C183.792 42 182.612 41.0275 182.612 39.0826C182.612 38.9078 182.623 38.7111 182.645 38.4925C182.667 38.2522 182.699 38.0118 182.743 37.7714L184.677 28.1341H182.219L182.841 24.8888H184.054C184.732 24.8888 185.18 24.7577 185.398 24.4955C185.639 24.2114 185.813 23.7743 185.923 23.1843L186.513 20.2013H190.217L189.299 24.8888H192.741L192.085 28.1341H188.643L186.513 38.7548H189.758L189.102 42H186.152Z" fill="white"/>
</svg>
